<?xml version="1.0" encoding="UTF-8" standalone="no"?>
<!-- Created with Inkscape (http://www.inkscape.org/) -->

<svg
   width="210mm"
   height="297mm"
   viewBox="0 0 210 297"
   version="1.1"
   id="svg5"
   inkscape:version="1.2 (dc2aeda, 2022-05-15)"
   sodipodi:docname="pareto.svg"
   xmlns:inkscape="http://www.inkscape.org/namespaces/inkscape"
   xmlns:sodipodi="http://sodipodi.sourceforge.net/DTD/sodipodi-0.dtd"
   xmlns="http://www.w3.org/2000/svg"
   xmlns:svg="http://www.w3.org/2000/svg">
  <sodipodi:namedview
     id="namedview7"
     pagecolor="#ffffff"
     bordercolor="#666666"
     borderopacity="1.0"
     inkscape:showpageshadow="2"
     inkscape:pageopacity="0.0"
     inkscape:pagecheckerboard="0"
     inkscape:deskcolor="#d1d1d1"
     inkscape:document-units="mm"
     showgrid="false"
     inkscape:zoom="1.3238911"
     inkscape:cx="244.35544"
     inkscape:cy="497.3974"
     inkscape:window-width="1879"
     inkscape:window-height="1027"
     inkscape:window-x="1512"
     inkscape:window-y="25"
     inkscape:window-maximized="0"
     inkscape:current-layer="layer1" />
  <defs
     id="defs2">
    <marker
       style="overflow:visible"
       id="TriangleStart"
       refX="0"
       refY="0"
       orient="auto-start-reverse"
       inkscape:stockid="TriangleStart"
       markerWidth="5.3244081"
       markerHeight="6.155385"
       viewBox="0 0 5.3244081 6.1553851"
       inkscape:isstock="true"
       inkscape:collect="always"
       preserveAspectRatio="xMidYMid">
      <path
         transform="scale(0.5)"
         style="fill:context-stroke;fill-rule:evenodd;stroke:context-stroke;stroke-width:1pt"
         d="M 5.77,0 -2.88,5 V -5 Z"
         id="path135" />
    </marker>
    <marker
       style="overflow:visible"
       id="TriangleStart-5"
       refX="0"
       refY="0"
       orient="auto-start-reverse"
       inkscape:stockid="TriangleStart"
       markerWidth="5.3244081"
       markerHeight="6.155385"
       viewBox="0 0 5.3244081 6.1553851"
       inkscape:isstock="true"
       inkscape:collect="always"
       preserveAspectRatio="xMidYMid">
      <path
         transform="scale(0.5)"
         style="fill:context-stroke;fill-rule:evenodd;stroke:context-stroke;stroke-width:1pt"
         d="M 5.77,0 -2.88,5 V -5 Z"
         id="path135-7" />
    </marker>
  </defs>
  <g
     inkscape:label="Layer 1"
     inkscape:groupmode="layer"
     id="layer1">
    <path
       style="fill:none;stroke:#000000;stroke-width:0.265;stroke-linecap:butt;stroke-linejoin:miter;stroke-opacity:1;stroke-dasharray:none;marker-end:url(#TriangleStart)"
       d="M 44.025084,148.5 H 105"
       id="path1081" />
    <path
       style="fill:none;stroke:#000000;stroke-width:0.265;stroke-linecap:butt;stroke-linejoin:miter;stroke-dasharray:none;stroke-opacity:1;marker-end:url(#TriangleStart-5)"
       d="M 44.025084,148.5 43.906956,87.525201"
       id="path1081-2" />
    <rect
       style="fill:none;fill-rule:evenodd;stroke-width:0.265;stroke:#000000;stroke-opacity:1;stroke-dasharray:0.26499999,0.79499996;stroke-dashoffset:0"
       id="rect1416"
       width="61.093044"
       height="60.974796"
       x="43.906956"
       y="87.525192"
       rx="2.6704211e-17" />
    <circle
       style="fill:#000000;fill-opacity:1;stroke:#000000;stroke-width:0.264999;stroke-miterlimit:7.4;stroke-dasharray:0.264999, 0.794999;stroke-dashoffset:0;stroke-opacity:1"
       id="path1598"
       cx="57.661747"
       cy="89.525192"
       r="2" />
    <circle
       style="fill:none;fill-opacity:1;stroke:#000000;stroke-width:0.264999;stroke-miterlimit:7.4;stroke-dasharray:none;stroke-dashoffset:0;stroke-opacity:1"
       id="path1598-5"
       cx="55.401093"
       cy="115.41072"
       r="2" />
    <circle
       style="fill:none;fill-opacity:1;stroke:#000000;stroke-width:0.264999;stroke-miterlimit:7.4;stroke-dasharray:none;stroke-dashoffset:0;stroke-opacity:1"
       id="path1598-5-8"
       cx="63.925457"
       cy="107.22429"
       r="2" />
    <circle
       style="fill:none;fill-opacity:1;stroke:#000000;stroke-width:0.264999;stroke-miterlimit:7.4;stroke-dasharray:none;stroke-dashoffset:0;stroke-opacity:1"
       id="path1598-5-8-6"
       cx="78.074287"
       cy="118.01259"
       r="2" />
    <circle
       style="fill:none;fill-opacity:1;stroke:#000000;stroke-width:0.264999;stroke-miterlimit:7.4;stroke-dasharray:none;stroke-dashoffset:0;stroke-opacity:1"
       id="path1598-5-8-6-2"
       cx="81.654114"
       cy="133.91475"
       r="2" />
    <circle
       style="fill:none;fill-opacity:1;stroke:#000000;stroke-width:0.264999;stroke-miterlimit:7.4;stroke-dasharray:none;stroke-dashoffset:0;stroke-opacity:1"
       id="path1598-5-8-6-2-5"
       cx="68.190453"
       cy="127.16904"
       r="2" />
    <circle
       style="fill:#000000;fill-opacity:1;stroke:#000000;stroke-width:0.264999;stroke-miterlimit:7.4;stroke-dasharray:0.264999, 0.794999;stroke-dashoffset:0;stroke-opacity:1"
       id="path1598-1"
       cx="70.798897"
       cy="93.785294"
       r="2" />
    <circle
       style="fill:#000000;fill-opacity:1;stroke:#000000;stroke-width:0.264999;stroke-miterlimit:7.4;stroke-dasharray:0.264999, 0.794999;stroke-dashoffset:0;stroke-opacity:1"
       id="path1598-1-9"
       cx="90.473633"
       cy="97.874924"
       r="2" />
    <circle
       style="fill:#000000;fill-opacity:1;stroke:#000000;stroke-width:0.264999;stroke-miterlimit:7.4;stroke-dasharray:0.264999, 0.794999;stroke-dashoffset:0;stroke-opacity:1"
       id="path1598-1-9-2"
       cx="94.73661"
       cy="113.57412"
       r="2" />
    <circle
       style="fill:#000000;fill-opacity:1;stroke:#000000;stroke-width:0.264999;stroke-miterlimit:7.4;stroke-dasharray:0.264999, 0.794999;stroke-dashoffset:0;stroke-opacity:1"
       id="path1598-1-9-2-4"
       cx="95.760696"
       cy="129.78226"
       r="2" />
    <path
       sodipodi:type="star"
       style="fill:#000000;fill-opacity:1;stroke:#000000;stroke-width:0.264999;stroke-miterlimit:7.4;stroke-dasharray:0.264999, 0.794999;stroke-dashoffset:0;stroke-opacity:1"
       id="path1688"
       inkscape:flatsided="false"
       sodipodi:sides="5"
       sodipodi:cx="105"
       sodipodi:cy="87.525192"
       sodipodi:r1="5.1202517"
       sodipodi:r2="2.5601258"
       sodipodi:arg1="0.93887015"
       sodipodi:arg2="1.5671887"
       inkscape:rounded="0"
       inkscape:randomized="0"
       d="m 108.02453,91.656678 -3.01529,-1.571377 -3.00388,1.593092 0.56269,-3.3533 -2.44338,-2.364567 3.36306,-0.501077 1.4938,-3.054475 1.51579,3.043618 3.36659,0.476798 -2.42625,2.382136 z"
       inkscape:transform-center-x="0.0033290206"
       inkscape:transform-center-y="-0.28883881"
       transform="matrix(0.58301831,0,0,0.59737927,43.918905,35.367185)" />
    <path
       style="fill:none;stroke:#000000;stroke-width:0.264583px;stroke-linecap:butt;stroke-linejoin:miter;stroke-opacity:1;stroke-dasharray:1.58749795,1.58749795;stroke-dashoffset:0"
       d="M 105,87.525192 90.4746,97.876359"
       id="path1854" />
    <text
       xml:space="preserve"
       style="font-size:7.49654px;line-height:1.25;font-family:'CMU Serif';-inkscape-font-specification:'CMU Serif';baseline-shift:baseline;stroke-width:0.165288"
       x="75.136635"
       y="157.95982"
       id="text1858"
       transform="scale(1.0119777,0.98816406)"><tspan
         sodipodi:role="line"
         id="tspan1856"
         style="font-style:italic;font-variant:normal;font-weight:500;font-stretch:normal;font-family:'CMU Serif';-inkscape-font-specification:'CMU Serif Medium Italic';baseline-shift:baseline;stroke-width:0.165288"
         x="75.136635"
         y="157.95982">J<tspan
   style="font-style:italic;font-variant:normal;font-weight:500;font-stretch:normal;font-size:4.87275px;font-family:'CMU Serif';-inkscape-font-specification:'CMU Serif Medium Italic';baseline-shift:sub;stroke-width:0.165288"
   id="tspan1860">1</tspan></tspan></text>
    <text
       xml:space="preserve"
       style="font-size:7.49654px;line-height:1.25;font-family:'CMU Serif';-inkscape-font-specification:'CMU Serif';baseline-shift:baseline;stroke-width:0.165288"
       x="35.997334"
       y="121.914"
       id="text1858-1"
       transform="scale(1.0119777,0.98816406)"><tspan
         sodipodi:role="line"
         id="tspan1856-8"
         style="font-style:italic;font-variant:normal;font-weight:500;font-stretch:normal;font-family:'CMU Serif';-inkscape-font-specification:'CMU Serif Medium Italic';baseline-shift:baseline;stroke-width:0.165288"
         x="35.997334"
         y="121.914">J<tspan
   style="font-style:italic;font-variant:normal;font-weight:500;font-stretch:normal;font-size:4.87275px;font-family:'CMU Serif';-inkscape-font-specification:'CMU Serif Medium Italic';baseline-shift:sub;stroke-width:0.165288"
   id="tspan1860-7">2</tspan></tspan></text>
    <text
       xml:space="preserve"
       style="font-size:3.88056px;line-height:1.25;font-family:'CMU Serif';-inkscape-font-specification:'CMU Serif';text-align:center;text-anchor:middle;stroke-width:0.264583"
       x="59.779991"
       y="135.92329"
       id="text2698"><tspan
         sodipodi:role="line"
         id="tspan2696"
         style="font-size:3.88056px;text-align:center;text-anchor:middle;stroke-width:0.264583"
         x="59.779991"
         y="135.92329">Dominated</tspan><tspan
         sodipodi:role="line"
         style="font-size:3.88056px;text-align:center;text-anchor:middle;stroke-width:0.264583"
         x="59.779991"
         y="140.77399"
         id="tspan2700">Solutions</tspan></text>
    <text
       xml:space="preserve"
       style="font-size:3.88056px;line-height:1.25;font-family:'CMU Serif';-inkscape-font-specification:'CMU Serif';text-align:center;text-anchor:middle;stroke-width:0.264583"
       x="122.85305"
       y="88.362831"
       id="text2698-1"><tspan
         sodipodi:role="line"
         style="font-size:3.88056px;text-align:center;text-anchor:middle;stroke-width:0.264583"
         x="122.85305"
         y="88.362831"
         id="tspan2700-9">Utopic solution</tspan></text>
    <text
       xml:space="preserve"
       style="font-size:3.88056px;line-height:1.25;font-family:'CMU Serif';-inkscape-font-specification:'CMU Serif';text-align:center;text-anchor:middle;stroke-width:0.264583"
       x="113.9335"
       y="102.69893"
       id="text2698-2"><tspan
         sodipodi:role="line"
         id="tspan2696-6"
         style="font-size:3.88056px;text-align:center;text-anchor:middle;stroke-width:0.264583"
         x="113.9335"
         y="102.69893">Non-Dominated</tspan><tspan
         sodipodi:role="line"
         style="font-size:3.88056px;text-align:center;text-anchor:middle;stroke-width:0.264583"
         x="113.9335"
         y="107.54963"
         id="tspan2700-8">Solutions</tspan></text>
    <text
       xml:space="preserve"
       style="font-size:3.52778px;line-height:1.25;font-family:'CMU Serif';-inkscape-font-specification:'CMU Serif';stroke-width:0.264583"
       x="78.401634"
       y="76.335838"
       id="text2901"><tspan
         sodipodi:role="line"
         style="font-size:3.52778px;stroke-width:0.264583"
         x="78.401634"
         y="76.335838"
         id="tspan2903">Usual selection of </tspan><tspan
         sodipodi:role="line"
         style="font-size:3.52778px;stroke-width:0.264583"
         x="78.401634"
         y="80.74556"
         id="tspan2907">the decision maker</tspan></text>
    <path
       style="fill:none;stroke:#000000;stroke-width:0.258376px;stroke-linecap:butt;stroke-linejoin:miter;stroke-opacity:1;marker-end:url(#TriangleStart)"
       d="m 89.993303,82.359368 0.480784,12.429805"
       id="path2909" />
    <path
       style="fill:none;stroke:#000000;stroke-width:0.264583px;stroke-linecap:butt;stroke-linejoin:miter;stroke-opacity:1;stroke-dasharray:0.26458299,0.52916598;stroke-dashoffset:0"
       d="m 52.161577,84.594207 c 0.105727,0.623699 -0.794467,0.533193 -0.999263,0.942787 -0.02979,0.05958 0.02979,0.140266 0,0.199853 -0.08427,0.168529 -0.315441,0.231174 -0.399706,0.399703 -0.02979,0.05959 0.04711,0.15275 0,0.199853 -0.04711,0.04711 -0.152746,-0.0471 -0.199853,0 -0.04711,0.04711 0.02979,0.140269 0,0.199853 -0.04213,0.08427 -0.15772,0.115589 -0.199853,0.199853 -0.05958,0.119171 0.04213,0.27331 0,0.399706 -0.04711,0.141317 -0.117223,0.275762 -0.199853,0.399706 -0.05226,0.07839 -0.177003,0.108453 -0.199853,0.199853 -0.04847,0.193885 0,0.399707 0,0.59956 0,0.06662 0.02979,0.140266 0,0.19985 -0.246956,0.493919 -0.199853,-0.06898 -0.199853,0.399706 0,0.06662 -0.02106,0.136655 0,0.199853 0.09421,0.282636 0.305496,0.516776 0.399706,0.799412 0.02106,0.0632 -0.04711,0.152747 0,0.199853 0.04711,0.0471 0.152747,-0.04711 0.199853,0 0.04711,0.0471 -0.04711,0.152747 0,0.199853 0.105331,0.105331 0.294373,0.09452 0.399706,0.199853 0.489636,0.979271 -0.06538,0.167161 0.399706,0.399704 0.08426,0.04213 0.133234,0.133236 0.199853,0.199853 0.26647,0.266472 0.53294,0.532942 0.79941,0.799412 0.06662,0.06662 0.121465,0.147592 0.199853,0.199853 0.123944,0.08263 0.275762,0.117223 0.399706,0.199853 0.07839,0.05226 0.121465,0.147592 0.199853,0.199853 0.123944,0.08263 0.294373,0.09452 0.399706,0.199853 0.0471,0.0471 -0.04711,0.152746 0,0.199853 0.0471,0.0471 0.140266,-0.0298 0.199853,0 0.454893,0.454893 -0.04139,0.05282 0.399703,0.19985 0.905299,0.301768 0.02791,0.05671 0.59956,0.399706 0.255468,0.153281 0.556982,0.226542 0.799412,0.399706 0.229989,0.164277 0.373451,0.429977 0.599559,0.599559 0.05329,0.03997 0.140266,-0.02979 0.199853,0 0.08426,0.04213 0.115586,0.157721 0.19985,0.199853 0.05959,0.02979 0.133236,0 0.199853,0 0.06662,0.06662 0.119068,0.151382 0.199853,0.199853 0.02585,1.225484 0.687784,0.221716 0.999265,0.399704 0.417092,0.238339 0.777388,0.569378 1.199116,0.799412 0.333089,0.133236 0.666175,0.266469 0.999265,0.399706 0.06662,0 0.135223,-0.01617 0.199853,0 0.561316,0.140329 1.048657,0.416171 1.598821,0.599559 0.260578,0.08686 0.544386,0.09784 0.799412,0.199853 0.08747,0.03499 0.113258,0.16274 0.199853,0.199853 0.38726,0.165968 0.807924,0.243226 1.199116,0.399703 0.276614,0.110646 0.525576,0.28235 0.799412,0.399706 0.38726,0.165968 0.807924,0.243229 1.199115,0.399706 0.138309,0.05532 0.25839,0.152747 0.399706,0.199853 0.0632,0.02106 0.140269,-0.02979 0.199853,0 0.08427,0.04213 0.115589,0.157721 0.199853,0.199853 0.05958,0.02979 0.133237,0 0.199853,0 0.133234,0 0.27045,-0.03231 0.399706,0 0.399704,0.133234 0.79941,0.26647 1.199116,0.399706 0.06662,0.06662 0.112379,0.164862 0.199853,0.199853 1.62243,0.648968 0.188217,-0.0024 1.199118,0.199851 0.206571,0.04131 0.395184,0.148757 0.599556,0.199857 0.06463,0.0162 0.136655,-0.0211 0.199853,0 0.141317,0.0471 0.25839,0.15275 0.399706,0.19985 0.0632,0.0211 0.135224,-0.0162 0.199854,0 0.408746,0.10219 0.799412,0.26647 1.199115,0.3997 0.599559,0.19986 1.204735,0.38358 1.798677,0.59956 0.337148,0.1226 0.658926,0.28626 0.999263,0.39971 0.0632,0.0211 0.133236,0 0.199853,0 0.266469,0.0666 0.544385,0.0978 0.799412,0.19985 0.08747,0.035 0.115586,0.15772 0.199853,0.19985 0.213333,0.10667 0.186372,-0.10666 0.399703,0 0.08427,0.0421 0.119068,0.15139 0.199853,0.19986 0.81902,0.49141 1.749946,0.77504 2.598087,1.19911 0.08427,0.0421 0.119067,0.15139 0.199853,0.19986 0.255468,0.15328 0.543943,0.24642 0.799412,0.3997 0.08079,0.0485 0.115586,0.15772 0.199853,0.19986 0.05958,0.0298 0.136652,-0.0211 0.199853,0 0.141316,0.0471 0.26647,0.13323 0.399703,0.19985 0.133236,0.0666 0.271973,0.12321 0.399706,0.19985 1.23026,0.73816 0.05794,0.0464 0.999265,0.79941 0.187558,0.15005 0.407403,0.25559 0.599559,0.39971 0.104236,0.0782 0.733936,0.7012 0.79941,0.79941 0.08263,0.12394 0.117223,0.27576 0.199853,0.3997 0.05226,0.0784 0.133236,0.13324 0.199853,0.19986 0.133236,0.26647 0.246425,0.54394 0.399706,0.79941 0.04847,0.0808 0.151381,0.11907 0.199853,0.19985 0.153278,0.25547 0.26647,0.53294 0.399706,0.79941 0.560141,1.12029 0.28906,0.5228 0.799409,1.79868 0.133237,0.33308 0.215133,0.69164 0.399706,0.99926 0.03427,0.0571 0.162902,-0.0554 0.199853,0 0.609365,0.14148 0.07702,0.55374 0.199853,0.79941 0.04213,0.0843 0.157721,0.11559 0.199853,0.19986 0.483016,0.96603 0.04741,0.23705 0.199853,0.99926 0.04132,0.20657 0.14876,0.39519 0.199854,0.59956 0.01617,0.0646 0,0.13323 0,0.19985 0.06662,0.19985 0.148759,0.39518 0.199853,0.59956 0.0205,0.082 -0.02424,0.37548 0,0.39971 0.0471,0.0471 0.152746,-0.0471 0.199853,0 0.0471,0.0471 0,0.13323 0,0.19985 0,0.29266 -0.04543,0.72666 0,0.99926 0.04515,0.27093 0.145983,0.53007 0.19985,0.79941 0.04444,0.2222 0,0.56585 0,0.79941 0,0.53294 0,1.06588 0,1.59883 0,0.46632 0,0.93264 0,1.39896 0,0.26647 -0.03305,0.535 0,0.79942 0.03407,0.27255 0.145986,0.53007 0.199853,0.79941 0.01307,0.0653 0,0.13323 0,0.19985 0,0.26647 0,0.53294 0,0.79941 0,0.59956 0,1.19912 0,1.79868 0,0.26647 0,0.53294 0,0.79941 0,0.13323 -0.03231,0.27045 0,0.3997 0.03613,0.14452 0.163724,0.25519 0.199853,0.39971 0.03232,0.12926 0,0.26647 0,0.3997 0,0.39971 0,0.79942 0,1.19912 0,0.0666 -0.02106,0.13665 0,0.19985 0.04711,0.14132 0.152747,0.25839 0.199853,0.39971 0.04213,0.1264 -0.02614,0.26906 0,0.3997 0.05387,0.26934 0.154697,0.52848 0.199853,0.79942 0.04381,0.26284 -0.08426,0.54661 0,0.79941 0.02979,0.0894 0.157721,0.11558 0.199853,0.19985 0.02979,0.0596 -0.02979,0.14027 0,0.19985 0.04213,0.0843 0.157721,0.11559 0.199853,0.19985 0.05958,0.11918 -0.04213,0.27331 0,0.39971 0.04711,0.14132 0.152747,0.25839 0.199853,0.39971 0.02106,0.0632 -0.04711,0.15274 0,0.19985 0.04711,0.0471 0.152747,-0.0471 0.199853,0 0.0471,0.0471 -0.02979,0.14027 0,0.19985 0.04213,0.0843 0.133234,0.13324 0.199853,0.19986 0.199853,0.19985 0.399703,0.3997 0.599557,0.59955 0.266472,0.26647 0.532942,0.53294 0.799412,0.79941 0.133236,0.13324 0.242927,0.29519 0.399706,0.39971 0.100644,0.44031 0.411136,0.10564 0.599559,0.19985 0.214833,0.10742 0.384722,0.29229 0.599556,0.39971 0.05958,0.0298 0.140269,-0.0298 0.199853,0 0.347435,0.17372 0.65183,0.42584 0.999265,0.59956 0.119169,0.0596 0.280535,-0.0596 0.399706,0 0.08427,0.0421 0.115586,0.15772 0.199853,0.19985 0.05958,0.0298 0.133234,0 0.199851,0 0.06662,0 0.140268,0.0298 0.199853,0 0.08427,-0.0421 0.115588,-0.15772 0.199853,-0.19985 0.119171,-0.0596 0.280537,0.0596 0.399706,0 0.08426,-0.0421 0.115588,-0.15772 0.199853,-0.19985 0.05958,-0.0298 0.140269,0.0298 0.199853,0 0.177136,-0.0886 0.417629,-0.47828 0.599559,-0.59956 0.123941,-0.0826 0.275762,-0.11723 0.399706,-0.19986 0.172453,-0.11497 0.443455,-0.44345 0.599556,-0.59956 0.06662,-0.0666 0.115589,-0.15772 0.199853,-0.19985 0.05958,-0.0298 0.152747,0.0471 0.199853,0 0.04711,-0.0471 -0.02979,-0.14027 0,-0.19985 0.04213,-0.0843 0.157721,-0.11559 0.199853,-0.19985 0.02979,-0.0596 -0.04711,-0.15275 0,-0.19986 0.04711,-0.0471 0.152747,0.0471 0.199853,0 0.09421,-0.0942 -0.05958,-0.28053 0,-0.3997 0.04213,-0.0843 0.157721,-0.11559 0.199853,-0.19985 0.04601,-0.092 0,-0.99199 0,-1.19912 0,-0.86603 0,-1.73206 0,-2.59809 0,-0.19837 -0.04413,-0.92203 0,-0.99926 -0.983588,-1.19928 0.948247,-1.02267 1.199117,-1.39897 0.0739,-0.11086 -0.0596,-0.28054 0,-0.39971 0.0298,-0.0596 0.15275,0.0471 0.19985,0 0.0471,-0.0471 -0.0298,-0.14026 0,-0.19985 0.0421,-0.0843 0.1476,-0.12146 0.19985,-0.19985 0.34926,-0.52388 0.0747,-0.34925 0.39971,-0.99927 0.0421,-0.0843 0.15772,-0.11558 0.19985,-0.19985 0.0298,-0.0596 -0.0298,-0.14027 0,-0.19985 0.0843,-0.16853 0.31544,-0.23118 0.39971,-0.39971 0.0628,-0.12561 -0.0628,-0.6738 0,-0.79941 0.0298,-0.0596 0.17006,0.0596 0.19985,0 0.0477,-0.0954 -0.0266,-1.03945 0,-1.19912 0.0452,-0.27093 0.1547,-0.52847 0.19985,-0.79941 0.0219,-0.13142 0,-0.26647 0,-0.3997 0,-0.33309 0,-0.66618 0,-0.99927 0,-0.0666 -0.0211,-0.13665 0,-0.19985 0.0471,-0.14132 0.16373,-0.25519 0.19986,-0.3997 0.0323,-0.12926 0,-0.26648 0,-0.39971 0,-0.39971 0,-0.79941 0,-1.19912 0,-0.33308 0,-0.66617 0,-0.99926 0,-0.19985 0.0632,-0.40996 0,-0.59956 -0.0298,-0.0894 -0.177,-0.10845 -0.19986,-0.19985 -0.0485,-0.19389 0,-0.39971 0,-0.59956 0,-0.33309 0,-0.66618 0,-0.99926 0,-0.0666 0.0131,-0.13453 0,-0.19986 -0.21819,-1.09098 -0.22518,-0.57702 -0.3997,-1.79867 -0.0188,-0.1319 0.0261,-0.26906 0,-0.39971 -0.0413,-0.20657 -0.14876,-0.39518 -0.19985,-0.59956 -0.0162,-0.0646 0.008,-0.13375 0,-0.19985 -0.0584,-0.46742 -0.10747,-0.93706 -0.19986,-1.39897 -0.0413,-0.20657 -0.15853,-0.39298 -0.19985,-0.59956 -0.0261,-0.13065 0,-0.26647 0,-0.3997 -0.0666,-0.33309 -0.10653,-0.67265 -0.19985,-0.99927 -0.0409,-0.14322 -0.15275,-0.25838 -0.19986,-0.3997 -0.0869,-0.26058 -0.15469,-0.52848 -0.19985,-0.79941 -0.0125,-0.0747 0.0133,-0.77284 0,-0.79941 -0.0298,-0.0596 -0.15274,0.0471 -0.19985,0 -0.0193,-0.0193 0.0162,-0.31884 0,-0.39971 -0.0539,-0.26934 -0.14599,-0.53007 -0.19985,-0.79941 -0.0999,-0.49963 0.19985,0.19985 0,-0.59956 -0.0361,-0.14451 -0.133238,-0.26647 -0.199857,-0.3997 -0.06662,-0.19986 -0.158539,-0.39299 -0.199851,-0.59956 -0.02614,-0.13065 0.03231,-0.27045 0,-0.39971 -0.03613,-0.14451 -0.152749,-0.25839 -0.199853,-0.3997 -0.04214,-0.1264 0.04213,-0.27331 0,-0.39971 -0.04711,-0.14132 -0.152749,-0.25839 -0.199853,-0.39971 -0.02106,-0.0632 0.01617,-0.13522 0,-0.19985 -0.05109,-0.20437 -0.165221,-0.39176 -0.199853,-0.59956 -0.03286,-0.19713 0.04847,-0.40567 0,-0.59956 -0.02286,-0.0914 -0.170061,-0.11047 -0.199853,-0.19985 -0.04213,-0.12639 0,-0.26647 0,-0.3997 -0.06662,-0.266474 -0.09784,-0.54439 -0.199853,-0.799414 -0.03499,-0.08747 -0.15772,-0.115588 -0.199853,-0.199853 -0.05896,-0.117917 0.04582,-0.462094 0,-0.599559 -0.04711,-0.141316 -0.152746,-0.258389 -0.199853,-0.399706 -0.02106,-0.0632 0.02979,-0.140269 0,-0.199853 -0.04213,-0.08426 -0.157721,-0.115586 -0.199853,-0.199853 -0.02979,-0.05958 0.02106,-0.136652 0,-0.19985 -0.04711,-0.141319 -0.152746,-0.25839 -0.199853,-0.399706 -0.02106,-0.0632 0.02979,-0.140269 0,-0.199853 -0.04213,-0.08427 -0.157718,-0.115589 -0.199853,-0.199853 -0.02979,-0.05958 0.04711,-0.152747 0,-0.199853 -0.0471,-0.04711 -0.152746,0.04711 -0.19985,0 -0.09421,-0.09421 0.05958,-0.280538 0,-0.399706 -0.220943,-0.441886 -0.124039,-0.06202 -0.399706,-0.199853 -0.831742,-0.41587 0.213648,0.01378 -0.199853,-0.399706 -0.04711,-0.0471 -0.144426,0.03695 -0.199853,0 -0.156779,-0.104519 -0.26647,-0.26647 -0.399706,-0.399704 -0.06662,-0.06662 -0.115589,-0.157721 -0.199853,-0.199853 -0.05958,-0.02979 -0.140269,0.02979 -0.199853,0 -0.08427,-0.04214 -0.110474,-0.170061 -0.199853,-0.199853 -0.126397,-0.04213 -0.280535,0.05958 -0.399706,0 -0.05958,-0.02979 0.05959,-0.170061 0,-0.199853 -0.199851,-0.09993 -0.399704,0.04996 -0.599557,0 -0.883772,-0.220943 -0.310094,-0.124036 -0.999265,-0.399706 -0.391192,-0.156477 -0.807924,-0.243229 -1.199115,-0.399706 -0.138309,-0.05532 -0.255194,-0.163724 -0.399706,-0.199853 -0.129257,-0.03231 -0.27045,0.03232 -0.399706,0 -0.144513,-0.03613 -0.255191,-0.163724 -0.399706,-0.199853 -0.129257,-0.03231 -0.268283,0.02191 -0.399706,0 -1.661983,-0.276998 -0.164315,-0.05477 -1.199116,-0.399703 -0.260578,-0.08686 -0.544385,-0.09784 -0.799412,-0.199853 -0.08747,-0.03499 -0.115586,-0.157721 -0.199853,-0.199853 -0.05958,-0.02979 -0.140266,0.02979 -0.199853,0 -0.08427,-0.04213 -0.115586,-0.157721 -0.19985,-0.199853 -0.171056,-0.543505 -0.544386,-0.09784 -0.799413,-0.199853 -0.276613,-0.110646 -0.516776,-0.305494 -0.799412,-0.399706 -0.126396,-0.04213 -0.269057,0.02614 -0.399706,0 -0.20657,-0.04131 -0.396999,-0.141978 -0.599556,-0.199853 -0.264104,-0.07546 -0.532942,-0.133234 -0.799412,-0.199853 -0.399706,-0.133234 -0.796422,-0.275799 -1.199116,-0.399706 -0.463539,-0.142627 -0.931076,-0.272098 -1.398971,-0.399704 -0.264993,-0.07227 -0.538834,-0.112995 -0.799412,-0.199853 -0.670906,-0.101576 -1.18079,-0.578739 -1.798674,-0.799412 -0.65499,-0.233926 -1.347304,-0.355349 -1.998528,-0.599559 -0.41843,-0.156911 -0.790747,-0.41806 -1.199115,-0.599556 -0.192508,-0.08556 -0.40231,-0.125887 -0.599559,-0.199853 -0.335905,-0.125966 -0.658927,-0.286261 -0.999265,-0.399707 -0.0632,-0.02106 -0.137999,0.02474 -0.199853,0 -0.72602,0.400125 -0.638601,-0.455294 -0.999263,-0.599559 -0.255026,-0.10201 -0.532942,-0.133236 -0.799412,-0.199853 -0.466323,-0.199853 -0.938321,-0.38695 -1.398968,-0.599559 -0.405755,-0.187269 -0.799413,-0.399703 -1.199119,-0.599556 -0.266469,-0.133236 -0.516776,-0.305496 -0.799409,-0.399706 -0.322255,-0.107418 -0.673907,-0.102246 -0.999265,-0.199853 -3.76287,-1.128861 1.269444,0.167471 -1.798675,-0.599559 -0.266469,-0.06662 -0.528476,-0.154697 -0.799412,-0.199853 -0.131421,-0.02191 -0.273306,0.04213 -0.399706,0 -0.08938,-0.02979 -0.108452,-0.177004 -0.19985,-0.199853 -2.074807,-0.5187 1.244359,0.76136 -1.398971,-0.199853 -0.476798,-0.173382 -0.91766,-0.439121 -1.398969,-0.599557 -0.121084,-0.04036 -1.586841,0 -1.598824,0 -0.732792,0 -1.465585,0 -2.19838,0 -0.480375,0 0.08427,0.02106 -0.79941,-0.199853 -0.07251,-0.01812 -1.507548,-0.02283 -1.598824,0 -0.0914,0.02286 -0.115586,0.157721 -0.19985,0.199853 -0.119171,0.05958 -0.270449,-0.03232 -0.399706,0 -0.204375,0.05109 -0.392986,0.158539 -0.599559,0.199853 -0.130649,0.02612 -0.27045,-0.03232 -0.399706,0 -0.289029,0.07225 -0.510384,0.327449 -0.799413,0.399704 -0.129256,0.03232 -0.273306,-0.04213 -0.399703,0 -0.08938,0.0298 -0.121465,0.147595 -0.199853,0.199853 -0.336912,0.22461 -0.846008,0.342961 -1.199118,0.456184 z"
       id="path3697" />
    <path
       style="fill:none;stroke:#000000;stroke-width:0.264583px;stroke-linecap:butt;stroke-linejoin:miter;stroke-opacity:1;stroke-dasharray:0.26458299,0.79374898;stroke-dashoffset:0"
       d="m 53.268594,107.22429 c 2.548046,-0.99241 0.497824,0.0906 1.690923,-1.10246 0.04711,-0.0471 0.152746,0.0471 0.199853,0 0.10533,-0.10533 0.09452,-0.29437 0.199853,-0.39971 0.10533,-0.10533 0.275762,-0.11722 0.399706,-0.19985 0.07839,-0.0523 0.115585,-0.15772 0.199853,-0.19985 0.05958,-0.0298 0.140266,0.0298 0.199853,0 0.08426,-0.0421 0.115586,-0.15772 0.19985,-0.19985 0.05959,-0.0298 0.152749,0.0471 0.199853,0 0.04711,-0.0471 -0.0471,-0.15275 0,-0.19986 0.04711,-0.0471 0.140269,0.0298 0.199853,0 0.08427,-0.0421 0.115589,-0.15772 0.199853,-0.19985 0.05958,-0.0298 0.152747,0.0471 0.199853,0 0.04711,-0.0471 -0.04711,-0.15275 0,-0.19985 0.04711,-0.0471 0.140269,0.0298 0.199853,0 0.08426,-0.0421 0.115589,-0.15772 0.199853,-0.19985 0.05958,-0.0298 0.140269,0.0298 0.199853,0 0.914646,-0.45733 -0.848058,0.0828 0.599559,-0.39971 0.0632,-0.0211 0.140266,0.0298 0.199851,0 0.08427,-0.0421 0.115588,-0.15772 0.199853,-0.19985 0.05959,-0.0298 0.140268,0.0298 0.199853,0 0.914648,-0.45733 -0.848059,0.0828 0.599559,-0.39971 0.126399,-0.0421 0.280537,0.0596 0.399706,0 0.08426,-0.0421 0.115586,-0.15772 0.199853,-0.19985 0.06082,-0.0304 0.509553,0 0.599559,0 0.154352,0 1.077187,-0.0406 1.199115,0 0.141317,0.0471 0.25839,0.15274 0.399706,0.19985 0.0632,0.0211 0.133234,0 0.199853,0 0.199853,0 0.399706,0 0.599557,0 0.199853,0 0.403587,-0.0392 0.599559,0 0.206573,0.0413 0.395184,0.14876 0.599559,0.19985 0.399706,0.0999 0,-0.19985 0.599559,0 0.08938,0.0298 0.121462,0.1476 0.199853,0.19986 0.123941,0.0826 0.258387,0.15274 0.399703,0.19985 0.0632,0.0211 0.136655,-0.0211 0.199853,0 0.579906,0.1933 0.233701,0.12531 0.599559,0.39971 1.981835,1.48637 -0.39566,-0.3304 0.999265,0.59955 0.230598,0.15374 0.368959,0.44583 0.599557,0.59956 0.123944,0.0826 0.294375,0.0945 0.399706,0.19985 0.04711,0.0471 0,0.13324 0,0.19986 0.133236,0.13323 0.24293,0.29519 0.399706,0.3997 0.05543,0.037 0.140269,-0.0298 0.199853,0 0.05306,0.0265 0.573027,0.5465 0.599559,0.59956 0.02979,0.0596 -0.04711,0.15275 0,0.19985 0.0471,0.0471 0.140266,-0.0298 0.199853,0 0.239824,0.11992 0.359733,0.47965 0.599556,0.59956 0.05959,0.0298 0.15275,-0.0471 0.199853,0 0.105334,0.10533 0.09452,0.29438 0.199853,0.39971 0.105334,0.10533 0.25839,0.15275 0.399706,0.19985 0.0632,0.0211 0.152747,-0.0471 0.199854,0 0.04711,0.0471 -0.04711,0.15275 0,0.19985 0.04711,0.0471 0.140268,-0.0298 0.199853,0 0.214833,0.10742 0.399706,0.26647 0.599559,0.39971 0.19985,0.13323 0.429715,0.22986 0.599556,0.3997 0.04711,0.0471 -0.0471,0.15275 0,0.19986 0.105333,0.10533 0.271973,0.12321 0.399706,0.19985 0.441992,-0.0195 0.522266,0.4148 0.799412,0.59956 1.394926,0.92995 -0.982572,-0.88682 0.999263,0.59956 0.07537,0.0565 0.115588,0.15772 0.199853,0.19985 0.05958,0.0298 0.140268,-0.0298 0.199853,0 0.168531,0.0843 0.242929,0.29519 0.399706,0.3997 0.123944,0.0826 0.280535,0.11048 0.399706,0.19986 0.150738,0.11305 0.242927,0.29519 0.399706,0.3997 0.05543,0.037 0.133233,0 0.199853,0 0.19985,0.13324 0.407402,0.25559 0.599556,0.39971 0.399706,0.29978 0,0.19985 0.599559,0.59956 0.05543,0.037 0.140269,-0.0298 0.199853,0 0.08427,0.0421 0.115589,0.15772 0.199853,0.19985 0.05958,0.0298 0.152747,-0.0471 0.199853,0 0.04711,0.0471 -0.04711,0.15275 0,0.19985 0.04711,0.0471 0.140269,-0.0298 0.199853,0 0.08426,0.0421 0.121463,0.1476 0.199853,0.19986 0.123942,0.0826 0.294373,0.0945 0.399704,0.19985 0.105333,0.10533 0.09452,0.29437 0.199853,0.3997 0.105333,0.10534 0.275762,0.11723 0.399706,0.19986 0.07839,0.0523 0.133236,0.13323 0.199853,0.19985 0.06662,0.0666 0.170061,0.11048 0.199853,0.19985 0.04213,0.1264 -0.04213,0.27331 0,0.39971 0.02979,0.0894 0.143325,0.12448 0.199853,0.19985 0.144116,0.19216 0.292288,0.38472 0.399706,0.59956 0.02979,0.0596 -0.01617,0.13522 0,0.19985 0.05109,0.20438 0.148759,0.39519 0.199853,0.59956 0.01617,0.0646 -0.02979,0.14027 0,0.19985 0.304731,0.60947 0.158435,-0.36552 0.399703,0.59956 0.03232,0.12926 -0.04213,0.27331 0,0.39971 0.0298,0.0894 0.177004,0.10845 0.199853,0.19985 0.04847,0.19389 -0.03285,0.40243 0,0.59956 -0.06941,0.40663 0.329351,0.64748 0.399706,0.99926 0.0392,0.19597 0,0.39971 0,0.59956 0,0.0666 -0.02106,0.13665 0,0.19985 0.04711,0.14132 0.152747,0.25839 0.199853,0.39971 0.02106,0.0632 -0.01617,0.13522 0,0.19985 0.102188,0.40875 0.297519,0.79037 0.399706,1.19912 0.04703,0.18809 -0.04702,0.41146 0,0.59956 0.03613,0.14451 0.152747,0.25839 0.199853,0.3997 0.04213,0.1264 -0.04213,0.27331 0,0.39971 0.04711,0.14132 0.152747,0.25839 0.199853,0.3997 0.02106,0.0632 0,0.13324 0,0.19986 0.06662,0.13323 0.152747,0.25838 0.199853,0.3997 0.04213,0.1264 -0.03232,0.27045 0,0.39971 0.05109,0.20437 0.14876,0.39518 0.199853,0.59956 0.01617,0.0646 -0.02979,0.14026 0,0.19985 0.304732,0.60946 0.158436,-0.36552 0.399704,0.59956 0,0.90978 -0.09421,0.0114 0.199853,0.59956 0.05958,0.11917 -0.04213,0.2733 0,0.3997 0.04711,0.14132 0.152746,0.25839 0.199853,0.39971 0.05996,0.17987 -0.05995,0.41969 0,0.59956 0.02979,0.0894 0.133236,0.13323 0.199853,0.19985 0.06662,0.19985 0.148759,0.39518 0.199853,0.59956 0.160427,0.6417 -0.288769,-0.55552 0,0.59955 0.07226,0.28903 0.305493,0.51678 0.399706,0.79942 0.05583,0.1675 -0.06623,0.66696 0,0.79941 0.04213,0.0843 0.170061,0.11047 0.199853,0.19985 0.0632,0.1896 -0.0632,0.40996 0,0.59956 0.04711,0.14132 0.152747,0.25839 0.199853,0.3997 0.03758,0.11276 0,0.46824 0,0.59956 0,0.33309 0,0.66618 0,0.99927 0,0.3997 0,0.79941 0,1.19911 0,0.0666 0,0.13324 0,0.19986 0,0.0666 0.0471,0.15274 0,0.19985 -0.04711,0.0471 -0.152747,-0.0471 -0.199853,0 -0.04086,0.0409 0.03962,0.52032 0,0.59956 -0.05337,0.10673 -0.494342,0.49434 -0.599559,0.59955 -0.06662,0.0666 -0.133236,0.13324 -0.199853,0.19986 -0.06662,0.0666 -0.110477,0.17006 -0.199853,0.19985 -0.126397,0.0421 -0.270447,-0.0323 -0.399706,0 -0.144513,0.0361 -0.253635,0.17064 -0.399704,0.19985 -1.136562,0 -0.131577,-0.0894 -0.999265,0.19986 -0.205875,0.0686 -0.783783,-0.19595 -0.799412,-0.19986 -0.06463,-0.0162 -0.133749,0.008 -0.199853,0 -0.467418,-0.0584 -0.941975,-0.0856 -1.398968,-0.19985 -0.0914,-0.0229 -0.115589,-0.15772 -0.199853,-0.19985 -0.188423,-0.0942 -0.397,-0.14198 -0.599559,-0.19986 -0.264102,-0.0754 -0.528476,-0.15469 -0.79941,-0.19985 -0.131424,-0.0219 -0.273309,0.0421 -0.399706,0 -0.08938,-0.0298 -0.115588,-0.15772 -0.199853,-0.19985 -0.05958,-0.0298 -0.136654,0.0211 -0.199853,0 -0.282633,-0.0942 -0.522795,-0.28906 -0.799412,-0.3997 -0.195596,-0.0782 -0.405926,-0.11687 -0.599556,-0.19986 -0.273836,-0.11736 -0.532943,-0.26647 -0.799412,-0.3997 -0.133237,-0.0666 -0.271974,-0.12322 -0.399706,-0.19986 -0.205963,-0.12358 -0.393595,-0.27612 -0.599557,-0.3997 -0.521091,-0.31266 -0.870363,-0.40296 -1.398971,-0.79941 -0.431162,-0.32338 0.03525,-0.2657 -0.799412,-0.59956 -0.123703,-0.0495 -0.269057,0.0261 -0.399703,0 -2.376004,-0.4752 1.581266,0.097 -1.398972,-0.39971 -0.131421,-0.0219 -0.269057,0.0261 -0.399706,0 -0.20657,-0.0413 -0.39176,-0.16522 -0.599556,-0.19985 -0.197133,-0.0329 -0.405672,0.0485 -0.599559,0 -0.348036,-0.087 -0.658926,-0.28626 -0.999265,-0.39971 -0.189595,-0.0632 -0.403585,0.0392 -0.599557,0 -0.206573,-0.0413 -0.411136,-0.10564 -0.599559,-0.19985 -0.08426,-0.0421 -0.11326,-0.16274 -0.199853,-0.19985 -0.38726,-0.16597 -0.803156,-0.25572 -1.199115,-0.39971 -0.337148,-0.1226 -0.658929,-0.28626 -0.999265,-0.3997 -0.0632,-0.0211 -0.133236,0 -0.199853,0 -0.199853,-0.0666 -0.411136,-0.10564 -0.599559,-0.19985 -0.08426,-0.0421 -0.115586,-0.15773 -0.199853,-0.19986 -0.320871,-0.16044 -0.678389,-0.23927 -0.999263,-0.3997 -0.347435,-0.17372 -0.65183,-0.42585 -0.999265,-0.59956 -0.188423,-0.0942 -0.411133,-0.10564 -0.599556,-0.19986 -0.214837,-0.10741 -0.393597,-0.27612 -0.599559,-0.3997 -0.127733,-0.0766 -0.275762,-0.11723 -0.399706,-0.19985 -0.07839,-0.0523 -0.127479,-0.13954 -0.199853,-0.19986 -0.327692,-0.27307 -0.675394,-0.52181 -0.999265,-0.79941 -0.214591,-0.18393 -0.399704,-0.3997 -0.599557,-0.59956 -0.199853,-0.19985 -0.399706,-0.3997 -0.599559,-0.59955 -0.133236,-0.13324 -0.242927,-0.29519 -0.399706,-0.39971 -0.05543,-0.037 -0.148675,0.0426 -0.199853,0 -0.361876,-0.30156 -0.666176,-0.66617 -0.999262,-0.99926 -0.666176,-0.66618 -1.332352,-1.33236 -1.998528,-1.99853 -0.333089,-0.33309 -0.666176,-0.66618 -0.999265,-0.99927 -0.133236,-0.13323 -0.242927,-0.29518 -0.399706,-0.3997 -0.05543,-0.037 -0.159882,0.0533 -0.199853,0 -0.178753,-0.23834 -0.220951,-0.56107 -0.399706,-0.79941 -0.03997,-0.0533 -0.152747,0.0471 -0.19985,0 -0.105334,-0.10533 -0.117227,-0.27576 -0.199854,-0.39971 -0.545914,-0.81887 0.270444,1.17574 -0.599559,-0.99926 -0.02474,-0.0619 0.03695,-0.14443 0,-0.19985 -0.104518,-0.15678 -0.315441,-0.23118 -0.399706,-0.39971 -0.05958,-0.11917 0.04948,-0.276 0,-0.39971 -0.0892,-0.22301 -0.292287,-0.38472 -0.399706,-0.59955 -0.02979,-0.0596 0.02106,-0.13666 0,-0.19986 -0.09421,-0.28263 -0.278706,-0.52716 -0.399706,-0.79941 -0.199853,-0.46632 -0.399703,-0.93265 -0.599556,-1.39897 -0.06662,-0.19985 -0.121616,-0.40396 -0.199853,-0.59955 -0.05532,-0.13831 -0.133236,-0.26648 -0.199853,-0.39971 -0.06662,-0.33309 -0.106535,-0.67265 -0.199853,-0.99927 -0.04092,-0.14323 -0.152747,-0.25838 -0.199853,-0.3997 -0.02106,-0.0632 0,-0.13324 0,-0.19985 0,-0.19986 0,-0.39971 0,-0.59956 0,-0.13324 0.01884,-0.26781 0,-0.39971 -0.239049,-1.67333 -0.199853,-0.37829 -0.199853,-1.59882 0,-0.0666 -0.01617,-0.13522 0,-0.19985 0.05109,-0.20438 0.148759,-0.39519 0.199853,-0.59956 0.06249,-0.24997 -0.08156,-0.55473 0,-0.79941 0.02979,-0.0894 0.133236,-0.13324 0.199853,-0.19986 0.133236,-0.13323 0.26647,-0.26647 0.399706,-0.3997 0.06662,-0.0666 0.115586,-0.15772 0.199853,-0.19985 0.159882,-0.0799 0.439674,0.0799 0.599556,0 0.588129,-0.29407 -0.310226,-0.19986 0.599559,-0.19986 0.07339,0 0.791369,0.008 0.799412,0 0.04711,-0.0471 -0.04711,-0.15274 0,-0.19985 0.04086,-0.0409 0.520319,0.0396 0.59956,0 0.08426,-0.0421 0.133233,-0.13323 0.19985,-0.19985 0.133236,0 0.273309,0.0421 0.399706,0 0.01516,-0.005 0.359119,-0.36856 0.399706,-0.39971 0.228497,-0.17536 0.47154,-0.33091 0.707311,-0.49636 z"
       id="path3699" />
  </g>
</svg>
